<?xml version="1.0" ?><svg enable-background="new 0 0 32 32" version="1.1" viewBox="0 0 32 32" xml:space="preserve" xmlns="http://www.w3.org/2000/svg" xmlns:xlink="http://www.w3.org/1999/xlink"><g id="Style_2_copy_3"><g><g><g><path d="M16,31.625c-8.615,0-15.625-7.01-15.625-15.625C0.375,7.384,7.385,0.375,16,0.375      S31.625,7.384,31.625,16C31.625,24.615,24.615,31.625,16,31.625z" fill="#FFFFFF"/><path d="M16,0.75c8.409,0,15.25,6.841,15.25,15.25S24.409,31.25,16,31.25S0.75,24.409,0.75,16      S7.591,0.75,16,0.75 M16,0C7.163,0,0,7.163,0,16c0,8.836,7.163,16,16,16s16-7.164,16-16C32,7.163,24.837,0,16,0L16,0z" fill="#E5E5E5"/></g></g><g><g><g><path d="M12.202,23.565c-4.247,0-7.702-3.393-7.702-7.564c0-4.171,3.455-7.565,7.702-7.565       c1.857,0,3.652,0.659,5.052,1.855l-1.959,2.211c-0.857-0.732-1.956-1.136-3.094-1.136c-2.602,0-4.719,2.079-4.719,4.634       c0,2.555,2.117,4.634,4.719,4.634c2.201,0,3.642-1.055,4.11-2.947h-4.074v-2.93h7.223v1.465       C19.461,20.613,16.544,23.565,12.202,23.565z" fill="#333333"/></g><polygon fill="#333333" points="27.501,14.758 25.267,14.758 25.267,12.525 23.481,12.525 23.481,14.758 21.248,14.758       21.248,16.544 23.481,16.544 23.481,18.777 25.267,18.777 25.267,16.544 27.501,16.544     "/></g></g></g></g></svg>